#!OML:ASF H:\MichaelJackson\Top Level 1\Subject 1\Session 1\male.ASF
:FULLY-SPECIFIED
:DEGREES
206
root 18.7127 16.8577 -19.384 9.85962 -4.34256 -2.47013
lowerback -1.60898 2.41619 3.06562
upperback -1.01773 3.18332 -0.606609
thorax 0.0582725 1.58055 -2.28015
lowerneck -13.1141 -3.3899 3.47877
upperneck 25.2261 -5.81919 0.648689
head 10.1225 -2.27459 -1.08046
rclavicle 7.55382e-015 6.75868e-015
rhumerus -46.6996 30.1304 -111.364
rradius 125.922
rwrist -34.5064
rhand 14.6595 -9.97062
rfingers 7.12502
rthumb 39.5311 -35.3364
lclavicle 7.55382e-015 6.75868e-015
lhumerus -41.805 -24.3702 96.5996
lradius 56.4725
lwrist 15.447
lhand -4.114 15.4497
lfingers 7.12502
lthumb 21.6445 44.2599
rfemur -20.4186 1.98208 20.4734
rtibia 30.4123
rfoot -26.0684 -20.1087
rtoes 23.7179
lfemur -24.6529 3.18187 -10.2816
ltibia 36.2433
lfoot -20.413 12.5848
ltoes 23.2578
207
root 18.6758 16.8584 -19.3955 9.88228 -4.18776 -2.48027
lowerback -1.46786 2.40523 3.2088
upperback -0.963079 3.17092 -0.590516
thorax 0.041298 1.57429 -2.34878
lowerneck -13.0892 -3.35806 3.52589
upperneck 24.9618 -5.76161 0.610119
head 10.0201 -2.25561 -1.08955
rclavicle -1.78409e-014 8.15017e-015
rhumerus -46.6435 30.5433 -111.5
rradius 126.378
rwrist -34.6453
rhand 14.4335 -10.3933
rfingers 7.12502
rthumb 39.3181 -35.8215
lclavicle -1.78409e-014 8.15017e-015
lhumerus -41.7108 -24.2477 96.506
lradius 56.2696
lwrist 15.3488
lhand -4.06182 15.4955
lfingers 7.12502
lthumb 21.6946 44.3
rfemur -20.4686 2.17618 20.633
rtibia 30.4371
rfoot -25.9077 -20.456
rtoes 23.6643
lfemur -25.2428 3.69045 -10.4243
ltibia 37.0841
lfoot -19.4125 13.3875
ltoes 20.262
208
root 18.6397 16.859 -19.4059 9.90033 -4.05912 -2.46744
lowerback -1.32931 2.40142 3.32876
upperback -0.912351 3.16865 -0.588066
thorax 0.021892 1.5731 -2.41821
lowerneck -13.043 -3.33329 3.57729
upperneck 24.6706 -5.7153 0.579827
head 9.9045 -2.24144 -1.09687
rclavicle 1.60767e-014 9.74045e-015
rhumerus -46.5714 30.9703 -111.626
rradius 126.903
rwrist -34.8482
rhand 14.221 -10.8631
rfingers 7.12502
rthumb 39.1178 -36.3493
lclavicle 1.60767e-014 9.74045e-015
lhumerus -41.6232 -24.1239 96.416
lradius 56.0681
lwrist 15.2739
lhand -4.01483 15.5404
lfingers 7.12502
lthumb 21.7397 44.3396
rfemur -20.5108 2.45481 20.7557
rtibia 30.4645
rfoot -25.7747 -20.8604
rtoes 23.6351
lfemur -25.829 4.28722 -10.6495
ltibia 37.945
lfoot -18.4722 14.1227
ltoes 17.5535
209
root 18.6046 16.86 -19.4152 9.92126 -3.95294 -2.43474
lowerback -1.20165 2.40464 3.42918
upperback -0.868744 3.17596 -0.597635
thorax 0.00155433 1.57666 -2.48856
lowerneck -12.9787 -3.31761 3.63944
upperneck 24.3555 -5.68228 0.54791
head 9.77695 -2.2335 -1.10729
rclavicle 2.70844e-014 -9.93923e-016
rhumerus -46.4779 31.408 -111.741
rradius 127.489
rwrist -35.0898
rhand 14.019 -11.3608
rfingers 7.12502
rthumb 38.9274 -36.9016
lclavicle 2.70844e-014 -9.93923e-016
lhumerus -41.5489 -23.9999 96.3325
lradius 55.8753
lwrist 15.2182
lhand -3.9732 15.581
lfingers 7.12502
lthumb 21.7797 44.3756
rfemur -20.5526 2.79722 20.8443
rtibia 30.4947
rfoot -25.6731 -21.3039
rtoes 23.6147
lfemur -26.4146 4.96194 -10.9528
ltibia 38.8172
lfoot -17.6666 14.6742
ltoes 15.5194
210
root 18.5707 16.8609 -19.4229 9.94721 -3.86592 -2.38668
lowerback -1.09127 2.41246 3.51699
upperback -0.831151 3.18919 -0.618921
thorax -0.0148462 1.58321 -2.56318
lowerneck -12.9027 -3.30568 3.71048
upperneck 24.0201 -5.65689 0.521726
head 9.64058 -2.22836 -1.11746
rclavicle 2.5842e-014 -7.15625e-015
rhumerus -46.361 31.8543 -111.848
rradius 128.132
rwrist -35.3304
rhand 13.8434 -11.8758
rfingers 7.12502
rthumb 38.7619 -37.4636
lclavicle 2.5842e-014 -7.15625e-015
lhumerus -41.49 -23.8739 96.2506
lradius 55.6976
lwrist 15.1721
lhand -3.91732 15.576
lfingers 7.12502
lthumb 21.8334 44.3643
rfemur -20.5951 3.1779 20.9047
rtibia 30.5291
rfoot -25.6077 -21.7638
rtoes 23.5991
lfemur -26.9967 5.69407 -11.3233
ltibia 39.6894
lfoot -17.0641 14.9524
ltoes 14.3884
